<?xml version='1.0' encoding='utf-8'?>
<svg xmlns:xlink="http://www.w3.org/1999/xlink" xmlns="http://www.w3.org/2000/svg" id="svg2" version="1.1" width="2560" height="1600" viewBox="0 0 2560 1600"> <metadata id="metadata8"> </metadata> <defs id="defs6"> <linearGradient id="linearGradient4424"> <stop style="stop-color:#333333;stop-opacity:1;" offset="0" id="stop4426"/> <stop style="stop-color:#0b0b0b;stop-opacity:1" offset="1" id="stop4428"/> </linearGradient> <linearGradient id="linearGradient4411"> <stop style="stop-color:#6cd426;stop-opacity:1" offset="0" id="stop4413"/> <stop style="stop-color:#338000;stop-opacity:1" offset="1" id="stop4415"/> </linearGradient> <linearGradient id="linearGradient4403"> <stop style="stop-color:#cacaca;stop-opacity:1" offset="0" id="stop4405"/> <stop style="stop-color:#101010;stop-opacity:1" offset="1" id="stop4407"/> </linearGradient> <linearGradient id="linearGradient4386"> <stop style="stop-color:#1a1a1a;stop-opacity:1;" offset="0" id="stop4388"/> <stop id="stop4394" offset="0.38233545" style="stop-color:#1a1a1a;stop-opacity:1;"/> <stop style="stop-color:#000000;stop-opacity:1" offset="1" id="stop4390"/> </linearGradient> <linearGradient id="linearGradient4376"> <stop style="stop-color:#1a1a1a;stop-opacity:1;" offset="0" id="stop4378"/> <stop id="stop4384" offset="0.82488936" style="stop-color:#0a0a0a;stop-opacity:1;"/> <stop style="stop-color:#000000;stop-opacity:1" offset="1" id="stop4380"/> </linearGradient> <linearGradient id="linearGradient4709"> <stop style="stop-color:#ffffff;stop-opacity:1;" offset="0" id="stop4711"/> </linearGradient> <linearGradient id="linearGradient4693"> <stop style="stop-color:#ffffff;stop-opacity:1;" offset="0" id="stop4695"/> </linearGradient> <linearGradient id="linearGradient4677"> <stop style="stop-color:#ffffff;stop-opacity:1;" offset="0" id="stop4679"/> </linearGradient> <linearGradient id="linearGradient4625"> <stop style="stop-color:#000000;stop-opacity:1;" offset="0" id="stop4627"/> </linearGradient> <linearGradient id="linearGradient4615"> <stop style="stop-color:#ffffff;stop-opacity:1;" offset="0" id="stop4617"/> </linearGradient> <linearGradient id="linearGradient4603"> <stop style="stop-color:#ffffff;stop-opacity:1;" offset="0" id="stop4605"/> </linearGradient> <linearGradient id="linearGradient4567"> <stop style="stop-color:#ffffff;stop-opacity:1;" offset="0" id="stop4569"/> </linearGradient> <linearGradient id="linearGradient4557"> <stop style="stop-color:#ffffff;stop-opacity:1;" offset="0" id="stop4559"/> </linearGradient> <linearGradient id="linearGradient4549"> <stop style="stop-color:#000000;stop-opacity:1;" offset="0" id="stop4551"/> </linearGradient> <linearGradient id="linearGradient4541"> <stop style="stop-color:#000000;stop-opacity:1;" offset="0" id="stop4543"/> </linearGradient> <linearGradient id="linearGradient4513"> <stop style="stop-color:#000000;stop-opacity:1;" offset="0" id="stop4515"/> </linearGradient> <linearGradient id="linearGradient4495"> <stop style="stop-color:#000000;stop-opacity:1;" offset="0" id="stop4497"/> </linearGradient> <linearGradient id="linearGradient4485"> <stop style="stop-color:#000000;stop-opacity:1;" offset="0" id="stop4487"/> </linearGradient> <linearGradient id="linearGradient4477"> <stop style="stop-color:#000000;stop-opacity:1;" offset="0" id="stop4479"/> </linearGradient> <linearGradient id="linearGradient4469"> <stop style="stop-color:#000000;stop-opacity:1;" offset="0" id="stop4471"/> </linearGradient> <linearGradient id="linearGradient4461"> <stop style="stop-color:#000000;stop-opacity:1;" offset="0" id="stop4463"/> </linearGradient> <linearGradient id="linearGradient4445"> <stop style="stop-color:#ffffff;stop-opacity:1;" offset="0" id="stop4447"/> </linearGradient> <linearGradient id="linearGradient4437"> <stop style="stop-color:#000000;stop-opacity:1;" offset="0" id="stop4439"/> </linearGradient> <linearGradient id="linearGradient4429"> <stop style="stop-color:#ffffff;stop-opacity:1;" offset="0" id="stop4431"/> </linearGradient> <linearGradient id="linearGradient4421"> <stop style="stop-color:#ffffff;stop-opacity:1;" offset="0" id="stop4423"/> </linearGradient> <linearGradient id="linearGradient4371"> <stop style="stop-color:#ffffff;stop-opacity:1;" offset="0" id="stop4373"/> </linearGradient> <linearGradient id="linearGradient4357"> <stop style="stop-color:#ffffff;stop-opacity:1;" offset="0" id="stop4359"/> </linearGradient> <linearGradient id="linearGradient4349"> <stop style="stop-color:#ffffff;stop-opacity:1;" offset="0" id="stop4351"/> </linearGradient> <linearGradient id="linearGradient4299"> <stop style="stop-color:#ffffff;stop-opacity:1;" offset="0" id="stop4301"/> </linearGradient> <linearGradient id="linearGradient4261"> <stop style="stop-color:#ffffff;stop-opacity:1;" offset="0" id="stop4263"/> </linearGradient> <linearGradient id="linearGradient4247"> <stop style="stop-color:#ffffff;stop-opacity:1;" offset="0" id="stop4249"/> </linearGradient> <linearGradient xlink:href="#linearGradient4247" id="linearGradient4253" x1="3325.373" y1="847.76117" x2="901.49255" y2="477.61194" gradientUnits="userSpaceOnUse" gradientTransform="matrix(0.73586743,0,0,0.73586743,285.7768,191.61298)"/> <linearGradient xlink:href="#linearGradient4261" id="linearGradient4267" x1="3205.9702" y1="835.82092" x2="1170.1493" y2="483.58209" gradientUnits="userSpaceOnUse" gradientTransform="matrix(0.73586743,0,0,0.73586743,285.7768,191.61298)"/> <linearGradient xlink:href="#linearGradient4261" id="linearGradient4269" x1="3205.9702" y1="835.82092" x2="1170.1493" y2="483.58209" gradientUnits="userSpaceOnUse" gradientTransform="matrix(0.73586743,0,0,0.73586743,285.7768,191.61298)"/> <linearGradient xlink:href="#linearGradient4261" id="linearGradient4271" x1="3205.9702" y1="835.82092" x2="1170.1493" y2="483.58209" gradientUnits="userSpaceOnUse" gradientTransform="matrix(0.73586743,0,0,0.73586743,285.7768,191.61298)"/> <linearGradient xlink:href="#linearGradient4299" id="linearGradient4305" x1="1417.9103" y1="608.9552" x2="-402.98508" y2="853.73132" gradientUnits="userSpaceOnUse" gradientTransform="matrix(0.73586743,0,0,0.73586743,285.7768,191.61298)"/> <linearGradient xlink:href="#linearGradient4299" id="linearGradient4307" x1="1417.9103" y1="608.9552" x2="-402.98508" y2="853.73132" gradientUnits="userSpaceOnUse" gradientTransform="matrix(0.73586743,0,0,0.73586743,285.7768,191.61298)"/> <linearGradient xlink:href="#linearGradient4299" id="linearGradient4309" x1="1417.9103" y1="608.9552" x2="-402.98508" y2="853.73132" gradientUnits="userSpaceOnUse" gradientTransform="matrix(0.73586743,0,0,0.73586743,285.7768,191.61298)"/> <linearGradient xlink:href="#linearGradient4349" id="linearGradient4355" x1="2802.9851" y1="743.28357" x2="1737.3135" y2="862.68658" gradientUnits="userSpaceOnUse" gradientTransform="matrix(0.71147017,0,0,0.72928007,331.51724,193.28421)"/> <linearGradient xlink:href="#linearGradient4357" id="linearGradient4363" x1="1979.1045" y1="1023.8806" x2="605.97015" y2="976.11938" gradientUnits="userSpaceOnUse" gradientTransform="matrix(0.73586743,0,0,0.73586743,285.7768,191.61298)"/> <linearGradient xlink:href="#linearGradient4357" id="linearGradient4365" x1="1979.1045" y1="1023.8806" x2="605.97015" y2="976.11938" gradientUnits="userSpaceOnUse" gradientTransform="matrix(0.73586743,0,0,0.73586743,285.7768,191.61298)"/> <linearGradient xlink:href="#linearGradient4357" id="linearGradient4367" x1="1979.1045" y1="1023.8806" x2="605.97015" y2="976.11938" gradientUnits="userSpaceOnUse" gradientTransform="matrix(0.73586743,0,0,0.73586743,285.7768,191.61298)"/> <linearGradient xlink:href="#linearGradient4357" id="linearGradient4369" x1="1979.1045" y1="1023.8806" x2="605.97015" y2="976.11938" gradientUnits="userSpaceOnUse" gradientTransform="matrix(0.73586743,0,0,0.73586743,285.7768,191.61298)"/> <linearGradient xlink:href="#linearGradient4371" id="linearGradient4377" x1="2609.9629" y1="651.21045" x2="1947.1821" y2="681.81659" gradientUnits="userSpaceOnUse" gradientTransform="matrix(0.73586743,0,0,0.73586743,285.7768,191.61298)"/> <linearGradient xlink:href="#linearGradient4371" id="linearGradient4379" x1="2609.9629" y1="651.21045" x2="1947.1821" y2="681.81659" gradientUnits="userSpaceOnUse" gradientTransform="matrix(0.73586743,0,0,0.73586743,285.7768,191.61298)"/> <linearGradient xlink:href="#linearGradient4421" id="linearGradient4427" x1="2510.7568" y1="405.30615" x2="2146.6497" y2="425.35843" gradientUnits="userSpaceOnUse" gradientTransform="matrix(0.73586743,0,0,0.73586743,285.7768,191.61298)"/> <linearGradient xlink:href="#linearGradient4429" id="linearGradient4435" x1="2592.0212" y1="445.41071" x2="2301.7908" y2="459.13071" gradientUnits="userSpaceOnUse" gradientTransform="matrix(0.73586743,0,0,0.73586743,285.7768,191.61298)"/> <linearGradient xlink:href="#linearGradient4437" id="linearGradient4443" x1="2249.0217" y1="329.31857" x2="2423.1599" y2="677.59503" gradientUnits="userSpaceOnUse" gradientTransform="matrix(0.73586743,0,0,0.73586743,285.7768,191.61298)"/> <linearGradient xlink:href="#linearGradient4445" id="linearGradient4451" x1="2505.4797" y1="601.60742" x2="2223.6926" y2="658.59814" gradientUnits="userSpaceOnUse" gradientTransform="matrix(0.73586743,0,0,0.73586743,279.56382,191.61298)"/> <linearGradient xlink:href="#linearGradient4461" id="linearGradient4467" x1="1734.3284" y1="17.910448" x2="1829.8507" y2="1125.3732" gradientUnits="userSpaceOnUse" gradientTransform="matrix(0.73586743,0,0,0.73586743,285.7768,191.61298)"/> <linearGradient xlink:href="#linearGradient4469" id="linearGradient4475" x1="1797.0149" y1="5.970149" x2="1802.9851" y2="1382.0896" gradientUnits="userSpaceOnUse" gradientTransform="matrix(0.73586743,0,0,0.73586743,285.7768,191.61298)"/> <linearGradient xlink:href="#linearGradient4477" id="linearGradient4483" x1="1256.7164" y1="14.925373" x2="982.08954" y2="1026.8657" gradientUnits="userSpaceOnUse" gradientTransform="matrix(0.73586743,0,0,0.73586743,285.7768,191.61298)"/> <linearGradient xlink:href="#linearGradient4485" id="linearGradient4491" x1="1071.6418" y1="35.820896" x2="1746.2687" y2="1337.3135" gradientUnits="userSpaceOnUse" gradientTransform="matrix(0.73586743,0,0,0.73586743,285.7768,191.61298)"/> <linearGradient xlink:href="#linearGradient4485" id="linearGradient4493" x1="1071.6418" y1="35.820896" x2="1746.2687" y2="1337.3135" gradientUnits="userSpaceOnUse" gradientTransform="matrix(0.73586743,0,0,0.73586743,285.7768,191.61298)"/> <linearGradient xlink:href="#linearGradient4495" id="linearGradient4501" x1="1241.791" y1="-11.940298" x2="2173.1343" y2="1122.3881" gradientUnits="userSpaceOnUse" gradientTransform="matrix(0.73586743,0,0,0.73586743,285.7768,191.61298)"/> <linearGradient xlink:href="#linearGradient4495" id="linearGradient4503" x1="1241.791" y1="-11.940298" x2="2173.1343" y2="1122.3881" gradientUnits="userSpaceOnUse" gradientTransform="matrix(0.73586743,0,0,0.73586743,285.7768,191.61298)"/> <linearGradient xlink:href="#linearGradient4513" id="linearGradient4519" x1="850.63892" y1="388.42001" x2="1640.0656" y2="636.43506" gradientUnits="userSpaceOnUse" gradientTransform="matrix(0.73586743,0,0,0.73586743,285.7768,191.61298)"/> <linearGradient xlink:href="#linearGradient4495" id="linearGradient4523" gradientUnits="userSpaceOnUse" x1="1241.791" y1="-11.940298" x2="2173.1343" y2="1122.3881" gradientTransform="matrix(0.73442619,0.046033,-0.046033,0.73442619,451.25349,57.472067)"/> <linearGradient xlink:href="#linearGradient4541" id="linearGradient4547" x1="1595.7395" y1="1338.2649" x2="679.66681" y2="1179.9575" gradientUnits="userSpaceOnUse" gradientTransform="matrix(0.73586743,0,0,0.73586743,285.7768,191.61298)"/> <linearGradient xlink:href="#linearGradient4549" id="linearGradient4555" x1="2311.9402" y1="365.67163" x2="2188.0598" y2="739.55225" gradientUnits="userSpaceOnUse" gradientTransform="matrix(0.73586743,0,0,0.73586743,285.7768,191.61298)"/> <linearGradient xlink:href="#linearGradient4557" id="linearGradient4563" x1="2292.5374" y1="287.31345" x2="1885.0746" y2="376.86566" gradientUnits="userSpaceOnUse" gradientTransform="matrix(0.73586743,0,0,0.73586743,285.7768,191.61298)"/> <linearGradient xlink:href="#linearGradient4567" id="linearGradient4573" x1="1908.652" y1="400.44623" x2="2054.1626" y2="725.60345" gradientUnits="userSpaceOnUse" gradientTransform="matrix(0.73586743,0,0,0.73586743,285.7768,191.61298)"/> <linearGradient xlink:href="#linearGradient4603" id="linearGradient4609" x1="1515.5304" y1="-422.11432" x2="755.65442" y2="768.35797" gradientUnits="userSpaceOnUse" gradientTransform="matrix(0.73586743,0,0,0.73586743,285.7768,191.61298)"/> <linearGradient xlink:href="#linearGradient4615" id="linearGradient4621" x1="1110.4478" y1="53.731342" x2="1626.8657" y2="268.65671" gradientUnits="userSpaceOnUse" gradientTransform="matrix(0.73586743,0,0,0.73586743,285.7768,191.61298)"/> <linearGradient xlink:href="#linearGradient4625" id="linearGradient4631" x1="2506.5352" y1="865.45325" x2="2296.5139" y2="676.53967" gradientUnits="userSpaceOnUse" gradientTransform="matrix(0.73586743,0,0,0.73586743,285.7768,191.61298)"/> <linearGradient xlink:href="#linearGradient4677" id="linearGradient4683" x1="1861.1941" y1="1228.3582" x2="804.4776" y2="1050.7462" gradientUnits="userSpaceOnUse" gradientTransform="matrix(0.73586743,0,0,0.73586743,285.7768,191.61298)"/> <linearGradient xlink:href="#linearGradient4677" id="linearGradient4685" x1="1861.1941" y1="1228.3582" x2="804.4776" y2="1050.7462" gradientUnits="userSpaceOnUse" gradientTransform="matrix(0.73586743,0,0,0.73586743,285.7768,191.61298)"/> <linearGradient xlink:href="#linearGradient4677" id="linearGradient4687" x1="1861.1941" y1="1228.3582" x2="804.4776" y2="1050.7462" gradientUnits="userSpaceOnUse" gradientTransform="matrix(0.73586743,0,0,0.73586743,285.7768,191.61298)"/> <linearGradient xlink:href="#linearGradient4677" id="linearGradient4689" x1="1861.1941" y1="1228.3582" x2="804.4776" y2="1050.7462" gradientUnits="userSpaceOnUse" gradientTransform="matrix(0.73586743,0,0,0.73586743,285.7768,191.61298)"/> <linearGradient xlink:href="#linearGradient4677" id="linearGradient4691" x1="1861.1941" y1="1228.3582" x2="804.4776" y2="1050.7462" gradientUnits="userSpaceOnUse" gradientTransform="matrix(0.73586743,0,0,0.73586743,285.7768,191.61298)"/> <linearGradient xlink:href="#linearGradient4693" id="linearGradient4699" x1="2658.209" y1="744.77612" x2="2007.4626" y2="816.41791" gradientUnits="userSpaceOnUse" gradientTransform="matrix(0.73586743,0,0,0.73586743,285.7768,191.61298)"/> <linearGradient xlink:href="#linearGradient4693" id="linearGradient4701" x1="2658.209" y1="744.77612" x2="2007.4626" y2="816.41791" gradientUnits="userSpaceOnUse" gradientTransform="matrix(0.73586743,0,0,0.73586743,285.7768,191.61298)"/> <linearGradient xlink:href="#linearGradient4693" id="linearGradient4703" x1="2658.209" y1="744.77612" x2="2007.4626" y2="816.41791" gradientUnits="userSpaceOnUse" gradientTransform="matrix(0.73586743,0,0,0.73586743,285.7768,191.61298)"/> <linearGradient xlink:href="#linearGradient4693" id="linearGradient4705" x1="2658.209" y1="744.77612" x2="2007.4626" y2="816.41791" gradientUnits="userSpaceOnUse" gradientTransform="matrix(0.73586743,0,0,0.73586743,285.7768,191.61298)"/> <linearGradient xlink:href="#linearGradient4709" id="linearGradient4715" x1="692.53729" y1="98.507462" x2="1280.597" y2="886.56714" gradientUnits="userSpaceOnUse" gradientTransform="matrix(0.73586743,0,0,0.73586743,285.7768,191.61298)"/> <radialGradient xlink:href="#linearGradient4376" id="radialGradient4382" cx="1238.8805" cy="1039.8584" fx="1238.8805" fy="1039.8584" r="128.11145" gradientTransform="matrix(1,0,0,1.1074644,0,-111.7478)" gradientUnits="userSpaceOnUse"/> <radialGradient xlink:href="#linearGradient4386" id="radialGradient4392" cx="2039.5265" cy="531.66882" fx="2039.5265" fy="531.66882" r="38.248837" gradientTransform="matrix(1.0000017,0,6.6023479e-8,2.5008001,-0.00349306,-797.92863)" gradientUnits="userSpaceOnUse"/> <radialGradient xlink:href="#linearGradient4403" id="radialGradient4409" cx="1195.0381" cy="511.87653" fx="1195.0381" fy="511.87653" r="316.26857" gradientTransform="matrix(1.5790323,-0.42278721,0.08450475,0.3156097,-735.22164,855.57013)" gradientUnits="userSpaceOnUse"/> <radialGradient xlink:href="#linearGradient4411" id="radialGradient4417" cx="1036.6836" cy="716.62512" fx="1036.6836" fy="716.62512" r="847.50305" gradientTransform="matrix(0.92157686,-0.0501445,0.03114139,0.57232966,58.983283,392.08062)" gradientUnits="userSpaceOnUse"/> <radialGradient xlink:href="#linearGradient4424" id="radialGradient4430" cx="620.51068" cy="1035.2219" fx="620.51068" fy="1035.2219" r="381.44347" gradientTransform="matrix(0.99743955,0.07151442,-0.03912866,0.54574268,40.226795,389.56673)" gradientUnits="userSpaceOnUse"/> </defs> <rect style="opacity:1;fill:#000000;fill-opacity:1;stroke:none;stroke-opacity:1" id="rect4243" width="121.28092" height="135.38336" x="1899.0952" y="627.21289"/> <rect style="opacity:1;fill:#000000;fill-opacity:1;stroke:none;stroke-opacity:1" id="rect4241" width="217.17747" height="219.99796" x="1213.7168" y="804.90356"/> <path style="fill:#000000;fill-rule:evenodd;stroke:none;stroke-width:1px;stroke-linecap:butt;stroke-linejoin:miter;stroke-opacity:1" d="m 1261.0311,1211.4444 c -24.3976,9.8761 -128.7741,10.3705 -189.6688,-61.8818 l -43.6742,-113.6241 123.6518,-3.9888 z" id="path4235"/> <path style="fill:#000000;fill-rule:evenodd;stroke:none;stroke-width:1px;stroke-linecap:butt;stroke-linejoin:miter;stroke-opacity:1" d="m 1953.5814,901.31753 c -15.1478,9.51548 -47.9105,4.91042 -104.2066,-5.48456 -38.8315,-94.29631 -11.3015,-133.29142 -16.9523,-199.93712 l 120.6603,-7.47894 z" id="path4229"/> <ellipse transform="matrix(0.9931876,0.11652636,-0.12133784,0.99261127,0,0)" ry="110.06181" rx="47.866108" cy="559.71948" cx="2040.6337" id="ellipse4227" style="opacity:1;fill:#000000;fill-opacity:1;stroke:none;stroke-opacity:1"/> <path style="opacity:1;fill:#000000;fill-opacity:1;stroke:none;stroke-opacity:1" d="M 1245.5293 862.72266 C 1157.8632 862.72264 1086.7949 942.3153 1086.7949 1040.4961 C 1086.7949 1138.6768 1151.2733 1213.875 1238.9395 1213.875 C 1326.6056 1213.8749 1395.4766 1116.71 1395.4766 1018.5293 C 1395.4766 920.34856 1333.1955 862.72269 1245.5293 862.72266 z M 1242.1641 908.20898 A 122.01493 126.49254 0 0 1 1364.1797 1034.7012 A 122.01493 126.49254 0 0 1 1242.1641 1161.1934 A 122.01493 126.49254 0 0 1 1120.1484 1034.7012 A 122.01493 126.49254 0 0 1 1242.1641 908.20898 z " id="path4231"/> <path style="opacity:1;fill:url(#radialGradient4382);fill-opacity:1;stroke:none;stroke-opacity:1" d="m 1366.9919,1023.3838 c 0,81.3904 -60.7996,158.3535 -135.7996,158.3535 -75.0001,0 -120.4233,-54.9969 -120.4233,-136.3873 0,-81.39044 60.7996,-147.37044 135.7996,-147.37045 75.0001,10e-6 120.4233,44.01378 120.4233,125.40425 z" id="ellipse4233"/> <path style="opacity:1;fill:url(#radialGradient4417);fill-rule:evenodd;stroke:none;stroke-width:1px;stroke-linecap:butt;stroke-linejoin:miter;stroke-opacity:1;fill-opacity:1" d="m 881.60454,598.30291 c 7.0534,-8.35724 13.791,-16.50717 20.748,-24.80112 2.1488,-2.56177 -1.4173,-7.94839 -2.1061,-11.27099 -0.5189,-11.6342 2.9165,-18.23824 8.6905,-24.54518 1.2798,-1.38622 8.5715,-9.94631 17.7034,-12.09837 4.1605,-0.98048 14.3378,4.11039 14.951,3.45907 29.244,-31.06398 69.77626,-69.5414 138.85746,-126.76723 11.7761,-9.934 29.6606,-15.79581 49.3586,-20.44853 l 64.166,-11.98707 c 32.8038,-13.03536 75.473,-20.15147 114.2297,-29.6151 199.3689,-18.30308 229.3109,-8.36835 310.9587,-7.05122 9.7145,0.32761 14.857,2.29649 6.3461,9.16658 l -2.8205,6.3461 c 57.9088,3.36396 115.3393,6.894 162.1779,14.10243 15.8531,4.03335 30.9089,5.40934 52.1791,27.49974 l 81.089,84.61459 c 39.8685,2.43884 70.9278,13.68676 103.6529,23.26902 14.4018,6.81618 16.96,13.63235 20.4485,20.44853 l 2.8205,11.28194 c 16.2457,19.82499 12.3712,29.02812 16.2177,42.3073 3.9857,30.10564 -0.3892,55.98973 -3.5256,82.49923 15.3849,0.96837 25.3688,6.43751 18.3332,26.08951 l -8.4614,11.98706 c -1.1709,9.62399 -4.2112,18.8145 -15.5127,26.08951 -9.7381,54.64151 -19.717,53.42056 -37.6843,68.51777 -7.7351,-39.36451 3.6292,-125.41702 -39.174,-108.00459 -49.4079,26.70985 -60.4148,71.34027 -83.988,110.10631 l -31.6519,41.49485 9.1665,3.5256 c -0.3024,9.42248 1.3619,15.55274 -6.3461,37.37145 l -459.6579,193.408 c 2.6003,-30.3961 -1.2998,-56.1804 -9.7386,-88.41642 30.6788,-209.2904 -186.6389,-123.37277 -242.7763,12.05866 -23.9669,51.10656 -31.5909,109.09866 -43.7176,163.58816 l 7.0513,10.5769 4.9358,40.897 c -31.0639,9.2425 -84.9323,22.5094 -179.80596,43.0124 -17.8722,4.8962 -30.3057,5.4413 -38.7817,2.8205 -155.9789,-36.7999 -309.90756,-54.8054 -476.66222,-190.3828 -0.32128,-5.7426 -7.79963,-5.6377 2.11537,-19.7435 12.36646,-12.4571 23.34948,-24.9142 33.84583,-37.3714 L 448.6599,959.32521 c -20.56218,-12.24998 -46.10248,-22.28744 -50.76876,-41.6022 -10.49472,-2.85333 -8.80818,-10.57916 -10.57682,-16.92292 -5.20581,-12.45715 -7.87023,-24.9143 9.16658,-37.37145 l 34.55096,-9.16658 1.41024,-8.46146 c -21.31082,-25.85446 -13.71722,-51.70892 -16.21779,-77.56338 20.39617,-74.41867 263.99073,-95.94099 465.38023,-169.93431 z" id="path4138"/> <path style="fill:url(#linearGradient4355);fill-opacity:1;fill-rule:evenodd;stroke:none;stroke-width:1px;stroke-linecap:butt;stroke-linejoin:miter;stroke-opacity:1" d="m 1777.4957,780.81923 c 28.914,4.85276 74.8226,-10.03713 79.4231,23.06071 14.821,-28.04379 18.4678,-57.64744 15.9125,-60.79642 z" id="path4201"/> <path style="fill:#000000;fill-opacity:1;fill-rule:evenodd;stroke:none;stroke-width:1px;stroke-linecap:butt;stroke-linejoin:miter;stroke-opacity:1" d="m 536.07214,813.56459 23.93263,92.7389 C 522.18437,890.49532 497.1769,885.89845 440.34166,853.45229 417.71732,841.25266 417.46231,812.27603 415.41184,784.646 Z" id="path4155"/> <path style="fill:#999999;fill-rule:evenodd;stroke:none;stroke-width:1px;stroke-linecap:butt;stroke-linejoin:miter;stroke-opacity:1" d="m 453.30516,795.61512 c 6.85172,29.41575 11.12952,62.90012 -4.91989,62.03053 -10.84349,-0.58752 -38.63036,-21.54214 -23.9987,-73.99684 z" id="path4174"/> <path style="fill:#666666;fill-rule:evenodd;stroke:none;stroke-width:1px;stroke-linecap:butt;stroke-linejoin:miter;stroke-opacity:1" d="m 464.27427,799.60389 c -14.25708,53.43567 12.61982,75.40563 20.00314,76.61258 25.00393,4.08738 18.78555,-34.78969 5.92387,-67.63785 z" id="path4176"/> <path style="fill:#f4d7d7;fill-rule:evenodd;stroke:none;stroke-width:1px;stroke-linecap:butt;stroke-linejoin:miter;stroke-opacity:1" d="m 424.38657,788.63477 c -6.33022,40.04991 0.56936,49.63004 15.62023,57.50602 25.04982,13.10834 12.0853,-31.58863 10.30678,-49.52848 z" id="path4172"/> <path style="fill:url(#radialGradient4409);fill-opacity:1;fill-rule:evenodd;stroke:none;stroke-width:1px;stroke-linecap:butt;stroke-linejoin:miter;stroke-opacity:1" d="m 1254.8768,380.557 c -50.5906,0.72548 -101.3608,0.52536 -151.712,5.94278 -17.3809,3.73992 -31.5013,15.36761 -44.0363,27.34146 -65.32066,55.90204 -128.13126,115.55312 -180.35896,184.11428 178.13426,10.57011 355.61936,29.71815 533.35726,45.24722 15.813,-0.46197 29.1451,-12.29849 35.3693,-26.2596 7.1425,-14.6518 9.8143,-30.94601 15.7782,-46.05468 15.9422,-49.45505 33.4136,-98.47502 47.7361,-148.41433 1.5658,-11.23729 -3.0367,-25.07775 -14.7158,-28.88701 -14.2989,-4.95263 -29.6573,-3.07219 -44.3196,-5.43837 -65.557,-5.24916 -131.3315,-7.74547 -197.0982,-7.59175 z" id="path4525"/> <path style="fill:#000000;fill-rule:evenodd;stroke:none;stroke-width:1px;stroke-linecap:butt;stroke-linejoin:miter;stroke-opacity:1" d="m 896.05864,590.19345 c 50.5085,-64.07262 115.76706,-125.3796 187.47226,-185.47782 8.8265,-6.50153 18.7785,-9.06456 28.9185,-10.96912 131.9916,-7.7353 254.9121,-4.88771 370.9556,5.98315 12.7763,0.69946 21.9204,5.82375 17.9495,26.9242 l -60.8287,185.47782 c -8.0496,10.34785 -11.2677,24.14674 -36.8961,21.93824 -172.7747,-16.41765 -347.5495,-33.83535 -507.57106,-43.87647 z" id="path4140"/> <path style="opacity:1;fill:#000000;fill-rule:evenodd;stroke:none;stroke-width:1px;stroke-linecap:butt;stroke-linejoin:miter;stroke-opacity:1" d="m 1466.1504,668.81506 79.6106,-263.55953 c 4.9457,-8.29771 4.7995,-12.42738 21.8896,-16.05528 74.725,-5.32147 85.481,-12.38559 225.907,-12.02443 15.3839,2.95947 18.2306,7.64236 22.7198,12.41761 40.4762,35.51603 64.2751,73.22867 91.042,108.7447 7.329,10.16053 8.9144,29.04875 8.7799,35.74361 l -0.7864,14.15752 2.1154,9.8717 z" id="path4219"/> <path style="fill:#000000;fill-rule:evenodd;stroke:none;stroke-width:1px;stroke-linecap:butt;stroke-linejoin:miter;stroke-opacity:1" d="m 1746.7888,579.96974 c -15.1508,-63.72769 -29.8209,-129.86721 -52.179,-191.79308 46.1125,-4.55896 80.8066,-2.96138 104.358,-1e-5 19.8397,55.70462 55.7515,111.40922 58.5251,167.11383 z" id="path4142"/> <path style="fill:#000000;fill-rule:evenodd;stroke:none;stroke-width:1px;stroke-linecap:butt;stroke-linejoin:miter;stroke-opacity:1" d="m 1808.1344,390.99714 c 19.9785,53.82432 62.062,125.73458 59.9353,161.47286 l 28.2049,-5.64098 c 2.1342,-10.12739 7.9646,-15.08009 1.4103,-37.37144 -25.2748,-44.0622 -51.3551,-87.3189 -89.5505,-118.46044 z" id="path4144"/> <path style="fill:#000000;fill-rule:evenodd;stroke:none;stroke-width:1px;stroke-linecap:butt;stroke-linejoin:miter;stroke-opacity:1" d="m 1495.0604,644.84094 c 5.7261,-51.97286 31.9775,-132.16808 51.4738,-203.07504 5.1161,-13.87653 8.1135,-39.39757 23.269,-41.60218 62.4424,-9.06567 56.5257,-5.50438 88.1403,-9.16658 17.2387,62.99087 30.2389,138.67392 38.0765,201.66479 z" id="path4146"/> <path style="fill:#000000;fill-rule:evenodd;stroke:none;stroke-width:1px;stroke-linecap:butt;stroke-linejoin:miter;stroke-opacity:1" d="m 1709.0648,676.21885 34.9035,-10.22427 c -2.5664,4.50113 -1.5686,11.65147 -12.6921,14.455 -8.3272,2.0578 -15.6701,4.63358 -22.2114,-4.23073 z" id="path4148"/> <path style="fill:#000000;fill-rule:evenodd;stroke:none;stroke-width:1px;stroke-linecap:butt;stroke-linejoin:miter;stroke-opacity:1" d="m 1893.1015,622.98216 25.737,-8.1089 c 3.6703,6.89689 -13.0581,24.65622 -25.737,8.1089 z" id="path4150"/> <path style="fill:#000000;fill-rule:evenodd;stroke:none;stroke-width:1px;stroke-linecap:butt;stroke-linejoin:miter;stroke-opacity:1" d="m 642.77174,844.47756 283.2027,52.8512 c 14.1764,17.59669 21.3651,43.92804 24.9298,74.78943 -1.9222,6.64172 1.4798,16.32581 -17.9494,12.96349 l -278.2168,-50.85676 c -9.3609,-29.91578 -13.24189,-59.83158 -11.9663,-89.74736 z" id="path4152"/> <path style="fill:#666666;fill-rule:evenodd;stroke:none;stroke-width:1px;stroke-linecap:butt;stroke-linejoin:miter;stroke-opacity:1" d="m 738.50224,866.41579 c -13.5174,32.95345 0.8218,67.25723 23.9326,87.75298 l 42.8793,7.97754 c 36.5258,-35.94973 18.7005,-61.69978 12.9635,-83.7642 z" id="path4160"/> <path style="fill:#666666;fill-rule:evenodd;stroke:none;stroke-width:1px;stroke-linecap:butt;stroke-linejoin:miter;stroke-opacity:1" d="m 831.24114,881.37368 c -10.6484,38.85812 -5.1882,71.45176 31.9102,91.74169 l 39.8877,5.98319 c 31.5499,-20.51746 26.1632,-49.7258 12.9635,-80.77261 z" id="path4164"/> <path style="fill:#f4d7d7;fill-rule:evenodd;stroke:none;stroke-width:1px;stroke-linecap:butt;stroke-linejoin:miter;stroke-opacity:1" d="m 762.43484,873.39614 c -5.5852,6.15514 -7.8517,20.61429 -6.4203,29.88559 4.1157,26.65787 16.976,40.20629 32.3352,47.07885 24.9855,11.17989 52.2265,-27.79938 30.9251,-67.9897 z" id="path4158"/> <path style="fill:#f4d7d7;fill-rule:evenodd;stroke:none;stroke-width:1px;stroke-linecap:butt;stroke-linejoin:miter;stroke-opacity:1" d="m 859.16254,888.35403 c -27.3908,58.75748 15.7696,83.44222 36.0166,82.06004 48.8774,-3.33657 19.8696,-63.81476 16.8346,-70.09373 z" id="path4166"/> <path style="fill:#000000;fill-rule:evenodd;stroke:none;stroke-width:1px;stroke-linecap:butt;stroke-linejoin:miter;stroke-opacity:1" d="m 642.77174,831.51405 3.9888,24.92982 c 96.3953,19.27905 248.485,31.13219 289.1858,57.83717 -7.9486,-16.19653 -9.4725,-33.90473 -60.8287,-39.8877 z" id="path4154"/> <path style="fill:#000000;fill-rule:evenodd;stroke:none;stroke-width:1px;stroke-linecap:butt;stroke-linejoin:miter;stroke-opacity:1" d="m 415.41184,770.6853 121.65749,37.89332 -1.99438,17.94947 L 415.41184,784.646 Z" id="path4162"/> <path style="fill:#f4d7d7;fill-rule:evenodd;stroke:none;stroke-width:1px;stroke-linecap:butt;stroke-linejoin:miter;stroke-opacity:1" d="m 467.26585,801.59828 c -16.36456,42.13004 9.51253,67.15924 19.90468,66.79468 23.91794,-0.83905 4.58325,-43.92584 0.0391,-57.81995 z" id="path4168"/> <path style="fill:#ffffff;fill-rule:evenodd;stroke:none;stroke-width:1px;stroke-linecap:butt;stroke-linejoin:miter;stroke-opacity:1" d="m 529.74889,819.7111 c -1.38982,-8.4289 4.24003,-10.71558 10.22426,-12.69219 29.63837,3.37594 33.33095,8.11744 46.89059,12.33963 -7.31158,1.70393 -9.24401,7.59165 -8.10889,15.86524 3.28249,32.75571 12.40398,60.64559 21.15365,88.84532 -9.78329,-2.02371 -17.77736,-2.45701 -35.60865,-11.63451 -3.01275,0.0887 -5.62037,-2.70508 -8.1089,-6.34609 -24.38751,-32.6251 -20.99257,-65.90974 -26.44206,-86.3774 z" id="path4182"/> <path style="fill:#000000;fill-rule:evenodd;stroke:none;stroke-width:1px;stroke-linecap:butt;stroke-linejoin:miter;stroke-opacity:1" d="m 536.09498,827.11488 c -1.25901,-4.15676 2.34347,-4.42432 5.64098,-4.93586 l 25.03182,4.93586 c 4.49926,0.63802 5.08494,3.62419 4.93585,7.05121 2.889,39.04624 11.75776,60.15318 20.09597,82.85179 l -28.90999,-8.46146 c -21.03974,-29.059 -22.99046,-55.10395 -26.79463,-81.44154 z" id="path4178"/> <path style="fill:#ffffff;fill-rule:evenodd;stroke:none;stroke-width:1px;stroke-linecap:butt;stroke-linejoin:miter;stroke-opacity:1" d="m 586.51118,819.35854 c 23.82258,0.0141 33.72922,5.96037 50.06364,9.16658 3.69804,1.30041 5.82022,5.7526 6.69862,12.69219 l 12.6922,94.13371 -4.5833,3.17306 c -13.8113,-3.08343 -21.99589,-3.60936 -45.12775,-10.9294 -4.34642,-1.41023 -4.5282,-2.82047 -6.34609,-4.2307 -19.70308,-55.84043 -19.42941,-73.26668 -21.15365,-90.60813 -0.4858,-6.7692 0.77155,-12.23104 7.75633,-13.39731 z" id="path4184"/> <path style="fill:#000000;fill-rule:evenodd;stroke:none;stroke-width:1px;stroke-linecap:butt;stroke-linejoin:miter;stroke-opacity:1" d="m 586.86374,838.04426 c -1.69742,-4.365 1.11236,-5.09342 4.5833,-5.28841 l 33.84583,7.75634 c 2.01499,1.30068 5.05501,1.32007 3.52561,7.05121 1.95644,35.81812 6.15786,64.52711 13.74986,82.49923 l -35.96119,-9.16658 c -14.57829,-36.75687 -18.1791,-60.96804 -19.74341,-82.85179 z" id="path4180"/> <path style="fill:#d45500;fill-rule:evenodd;stroke:none;stroke-width:1px;stroke-linecap:butt;stroke-linejoin:miter;stroke-opacity:1" d="m 778.93614,1017.5418 -1.0982,31.8509 110.9292,21.9663 1.0983,-34.0477 z" id="path4393"/> <path style="fill:#d45500;fill-rule:evenodd;stroke:none;stroke-width:1px;stroke-linecap:butt;stroke-linejoin:miter;stroke-opacity:1" d="m 396.72443,890.13788 0,25.26112 38.44083,19.7696 1.09836,-21.96623 z" id="path4395"/> <path style="fill:url(#radialGradient4430);fill-opacity:1;fill-rule:evenodd;stroke:none;stroke-width:1px;stroke-linecap:butt;stroke-linejoin:miter;stroke-opacity:1" d="m 1146.354,994.05646 -16.9523,48.86244 -153.56766,32.9073 c -14.9001,4.0465 -28.6864,9.2069 -53.8484,2.9916 l -34.9017,-4.9859 2.9916,-35.899 -93.7361,-15.955 0,32.9074 C 692.53764,1032.6027 599.69911,1029.5394 433.36131,937.21644 l 0.99719,-23.9326 c -10.66604,-5.43566 -22.08364,-13.87754 -31.91017,-15.95508 l 0,20.94105 -12.96349,-3.98878 c -1.72831,-3.57541 -1.90292,-9.02238 -2.89892,-12.06357 -6.73399,-20.56161 -0.88075,-28.78004 1.90172,-27.82413 172.20886,108.75853 412.7118,134.32077 540.4784,156.55927 15.4792,2.0399 29.0497,0.2622 41.8821,-2.9916 z" id="path4157"/> <path style="fill:#000000;fill-rule:evenodd;stroke:none;stroke-width:1px;stroke-linecap:butt;stroke-linejoin:miter;stroke-opacity:1" d="m 675.70904,1054.5166 43.7176,11.987 2.1153,15.5127 -54.2943,-14.8075 -1.4103,-14.8075 z" id="path4163"/> <path style="fill:url(#linearGradient4547);fill-opacity:1;fill-rule:evenodd;stroke:none;stroke-width:1px;stroke-linecap:butt;stroke-linejoin:miter;stroke-opacity:1" d="m 948.90984,1103.7476 c 11.3217,0.9019 27.0789,-0.4284 46.6188,-6.731 l 129.55806,-34.71 -4.6597,4.5449 -124.89836,33.6553 c -8.908,2.5877 -18.2007,4.7757 -30.4144,5.4845 -11.2999,0.2352 -12.3189,-1.2431 -16.2044,-2.2437 z" id="path4167"/> <path style="fill:#808080;fill-rule:evenodd;stroke:none;stroke-width:1px;stroke-linecap:butt;stroke-linejoin:miter;stroke-opacity:1" d="m 1512.6884,367.023 84.6146,-9.87171 c 32.348,-3.19011 26.7209,-14.18077 28.91,-19.03828 z" id="path4171"/> <path style="fill:#000000;fill-rule:evenodd;stroke:none;stroke-width:1px;stroke-linecap:butt;stroke-linejoin:miter;stroke-opacity:1" d="m 1191.0717,368.35199 296.1511,0.70512 c 22.4923,0.47515 39.2735,-3.33301 54.2944,-8.46146 l 76.1531,-19.7434 c 7.2599,-2.55937 11.8651,-5.45057 4.2307,-9.87171 -73.4627,0.27653 -168.5166,-12.48001 -278.5231,2.82049 -75.4789,5.81462 -101.5498,23.03112 -152.3062,34.55096 z" id="path4169"/> <path style="fill:url(#linearGradient4307);fill-opacity:1;fill-rule:evenodd;stroke:none;stroke-width:1px;stroke-linecap:butt;stroke-linejoin:miter;stroke-opacity:1" d="m 603.78666,771.76282 129.03728,-59.93534 c 14.986,-6.9821 23.1632,-5.6422 32.4356,-5.64097 l 74.7429,6.3461 c 24.5989,1.72065 10.6734,6.29532 0.7051,10.57682 l -125.5117,52.88412 c -0.6331,0.39958 -8.9617,4.80397 -23.269,3.52561 l -84.61457,-2.82049 c -11.7075,-0.11895 -7.60876,-2.52853 -3.52561,-4.93585 z" id="path4175"/> <path style="fill:url(#linearGradient4305);fill-opacity:1;fill-rule:evenodd;stroke:none;stroke-width:1px;stroke-linecap:butt;stroke-linejoin:miter;stroke-opacity:1" d="m 667.45224,815.30967 93.2375,-35.89894 c 5.279,-1.83258 10.3418,-3.23271 14.9579,-3.73947 l 36.8961,2.24368 c 15.2067,1.45372 7.9274,4.8704 6.4818,5.73386 l -52.6019,24.43123 c -4.0672,1.2892 -5.2276,3.30511 -16.703,2.74227 l -57.8371,-2.24368 -14.4593,5.73386 z" id="path4177"/> <path style="fill:url(#linearGradient4309);fill-opacity:1;fill-rule:evenodd;stroke:none;stroke-width:1px;stroke-linecap:butt;stroke-linejoin:miter;stroke-opacity:1" d="m 581.22278,759.07064 c 36.43637,-28.67835 2.81163,-17.93528 -15.51269,-2.82049 -18.73656,14.82576 -27.16881,37.04651 15.51269,2.82049 z" id="path4179"/> <path style="fill:#000000;fill-rule:evenodd;stroke:none;stroke-width:1px;stroke-linecap:butt;stroke-linejoin:miter;stroke-opacity:1" d="m 818.77624,1090.7841 c 3.4955,15.2085 27.5253,35.5506 -2.493,42.3807 l 39.3891,7.479 -11.4677,-45.3723 z" id="path4181"/> <path style="fill:url(#linearGradient4369);fill-opacity:1;fill-rule:evenodd;stroke:none;stroke-width:1px;stroke-linecap:butt;stroke-linejoin:miter;stroke-opacity:1" d="m 1133.3904,956.16312 c 11.469,-21.77204 17.3577,-43.54408 35.899,-65.31611 1.0912,9.95748 1.4706,19.77261 -3.9887,28.41999 9.6944,-0.94028 22.1299,-11.47397 34.4031,-21.43964 l 16.9522,-13.9607 -17.9495,20.44245 c -7.4183,7.30493 -21.5979,24.75179 -36.8961,43.87647 -11.185,13.02404 -11.0762,4.1146 -9.4733,-3.49015 -3.4901,5.25844 -6.9804,7.3221 -10.4705,19.94385 -8.3032,12.04284 -12.6538,1.31441 -8.4762,-8.47616 z" id="path4183"/> <path style="fill:#000000;fill-rule:evenodd;stroke:none;stroke-width:1px;stroke-linecap:butt;stroke-linejoin:miter;stroke-opacity:1" d="m 538.91548,1029.8374 4.23073,19.0382 c 73.62847,37.3811 122.36373,46.7574 182.62653,69.102 6.4368,2.7558 9.2074,0.4848 9.1666,-5.641 l -3.5257,-14.8076 c -80.184,-20.9621 -129.04136,-45.0568 -192.49816,-67.6916 z" id="path4165"/> <path style="fill:#ffffff;fill-rule:evenodd;stroke:none;stroke-width:1px;stroke-linecap:butt;stroke-linejoin:miter;stroke-opacity:1" d="m 856.17094,1095.7701 11.9663,50.8568 66.8119,10.9691 c 14.9109,0.8382 14.6996,-5.4399 13.9607,-11.9663 l -6.9803,-28.9186 c -2.0956,-4.5928 -4.2771,-9.1341 -10.9691,-10.9691 z" id="path4159"/> <path style="fill:url(#linearGradient4503);fill-opacity:1;fill-rule:evenodd;stroke:none;stroke-width:1px;stroke-linecap:butt;stroke-linejoin:miter;stroke-opacity:1" d="m 1735.6948,602.65835 1.9944,-0.4986 c 35.6691,46.20154 21.9201,110.73756 16.9522,172.01572 l -2.4929,0.4986 c 5.1575,-59.59599 20.0573,-121.25852 -16.4537,-172.01572 z" id="path4213"/> <path style="fill:#333333;fill-rule:evenodd;stroke:none;stroke-width:1px;stroke-linecap:butt;stroke-linejoin:miter;stroke-opacity:1" d="M 1751.1513,775.17267 1886.2709,730.299 c 6.565,3.69411 8.0296,8.77924 0,16.45368 l -132.6266,47.36665 z" id="path4193"/> <path style="fill:#000000;fill-rule:evenodd;stroke:none;stroke-width:1px;stroke-linecap:butt;stroke-linejoin:miter;stroke-opacity:1" d="m 1750.667,775.81727 c 5.9535,2.82598 16.3055,5.70787 14.455,7.58006 0.4513,3.99413 -0.5954,7.86342 -11.282,10.92938 z" id="path4191"/> <path style="fill:url(#linearGradient4501);fill-opacity:1;fill-rule:evenodd;stroke:none;stroke-width:1px;stroke-linecap:butt;stroke-linejoin:miter;stroke-opacity:1" d="m 1752.7823,794.32671 c 1.9273,1.10497 3.6636,2.65537 2.8205,10.22427 -3.1983,19.68682 -10.8691,44.9643 -17.628,69.10192 l 2.1154,-1.41025 c 6.0091,-22.44637 12.1672,-44.89274 17.2754,-67.33911 1.1281,-6.50113 0.395,-10.76874 -3.173,-11.63451 z" id="path4215"/> <path style="fill:#333333;fill-rule:evenodd;stroke:none;stroke-width:1px;stroke-linecap:butt;stroke-linejoin:miter;stroke-opacity:1" d="m 1483.0733,865.544 267.2411,-90.25557 c 5.2592,6.34609 9.3778,12.69219 3.5256,19.03828 l -268.6513,95.19142 z" id="path4189"/> <path style="fill:#000000;fill-rule:evenodd;stroke:none;stroke-width:1px;stroke-linecap:butt;stroke-linejoin:miter;stroke-opacity:1" d="m 1482.3682,866.24912 c 1.2704,3.56297 17.9359,3.18925 19.0383,6.3461 -0.024,6.17915 -2.9945,12.06367 -16.2178,16.92291 z" id="path4187"/> <path style="fill:url(#linearGradient4491);fill-opacity:1;fill-rule:evenodd;stroke:none;stroke-width:1px;stroke-linecap:butt;stroke-linejoin:miter;stroke-opacity:1" d="m 1481.663,889.8707 c 0.7438,34.94661 -11.2021,59.0442 -17.9805,88.14025 l 2.8205,-0.70519 c 5.8305,-29.26257 17.8448,-58.52508 16.9229,-87.78763 z" id="path4217"/> <path style="fill:url(#linearGradient4493);fill-opacity:1;fill-rule:evenodd;stroke:none;stroke-width:1px;stroke-linecap:butt;stroke-linejoin:miter;stroke-opacity:1" d="m 1465.4452,670.93043 17.6281,61.34558 c 0.6896,4.69148 1.1642,9.25395 -1.4102,11.98707 6.5089,42.20125 -0.4574,83.26931 -2.1154,123.9276 l 3.9855,0.60281 c 1.7733,-39.9569 3.8517,-84.57352 0.6155,-124.53041 2.06,-4.06454 1.9648,-8.12906 0.8688,-12.1936 l -17.5424,-61.13905 z" id="path4205"/> <path style="fill:#333333;fill-rule:evenodd;stroke:none;stroke-width:1px;stroke-linecap:butt;stroke-linejoin:miter;stroke-opacity:1" d="m 1399.8689,888.81302 2.8205,27.49974 78.2685,-24.67926 c 17.005,-11.0776 6.3642,-17.90202 0,-25.38438 z" id="path4185"/> <path style="fill:url(#linearGradient4363);fill-opacity:1;fill-rule:evenodd;stroke:none;stroke-width:1px;stroke-linecap:butt;stroke-linejoin:miter;stroke-opacity:1" d="m 1276.1201,811.24963 c 121.1581,-18.71987 127.0367,90.97653 126.9219,117.05023 -6.0041,-39.03308 -20.0495,-77.07704 -46.3899,-98.19668 -5.0904,-4.08145 -13.0349,-8.09011 -19.0405,-10.72465 -16.4042,-7.19626 -34.287,-8.69594 -61.4915,-8.1289 z" id="path4195"/> <path style="fill:url(#linearGradient4365);fill-opacity:1;fill-rule:evenodd;stroke:none;stroke-width:1px;stroke-linecap:butt;stroke-linejoin:miter;stroke-opacity:1" d="m 1304.6776,824.29439 c 62.5193,1.66728 3.8947,22.46606 -3.1731,20.09596 12.5884,-4.98669 48.7587,-14.19476 3.1731,-20.09596 z" id="path4197"/> <path style="fill:url(#linearGradient4367);fill-opacity:1;fill-rule:evenodd;stroke:none;stroke-width:1px;stroke-linecap:butt;stroke-linejoin:miter;stroke-opacity:1" d="m 1172.8198,904.32569 c 23.5182,-13.57854 43.3422,-27.56756 50.0636,-43.01242 -22.9711,10.3391 -37.318,26.16628 -50.0636,43.01242 z" id="path4199"/> <path style="fill:url(#linearGradient4483);fill-opacity:1;fill-rule:evenodd;stroke:none;stroke-width:1px;stroke-linecap:butt;stroke-linejoin:miter;stroke-opacity:1" d="m 896.75974,878.7675 c 46.3143,-40.14137 105.82046,-68.03935 179.25876,-95.55041 99.395,-37.23475 223.2127,-72.62504 323.8504,-105.94057 34.7038,-9.5656 29.1173,-15.44067 37.3715,-21.85877 l 2.8205,2.11537 c -8.9491,7.90225 -8.9717,12.59789 -31.7304,20.44852 -36.8153,11.02033 -69.0888,22.44534 -101.2574,32.61771 -82.8296,26.19236 -165.7188,50.96741 -243.1441,81.55253 -56.9305,22.48912 -114.01856,50.61189 -162.86696,88.80249 z" id="path4203"/> <path style="fill:url(#linearGradient4519);fill-opacity:1;fill-rule:evenodd;stroke:none;stroke-width:1px;stroke-linecap:butt;stroke-linejoin:miter;stroke-opacity:1" d="M 1466.833,660.43762 C 1271.9213,639.01728 1223.3377,630.03655 882.09794,596.1766 l -2.9915,0.99719 c 207.83206,9.16466 394.63766,39.35588 587.72656,63.26383 z" id="path4207"/> <path style="fill:url(#linearGradient4379);fill-opacity:1;fill-rule:evenodd;stroke:none;stroke-width:1px;stroke-linecap:butt;stroke-linejoin:miter;stroke-opacity:1" d="m 1911.9486,657.75324 c -8.3617,10.59852 -8.6738,22.48497 -32.1594,30.66367 8.6126,-1.01702 14.726,0.18763 11.4676,9.72263 l -9.4733,5.48456 13.2128,-4.73667 c 10.4008,-19.21145 19.0281,-36.36927 16.9523,-41.13419 z" id="path4209"/> <path style="fill:url(#linearGradient4377);fill-opacity:1;fill-rule:evenodd;stroke:none;stroke-width:1px;stroke-linecap:butt;stroke-linejoin:miter;stroke-opacity:1" d="m 1904.7189,724.81444 c 7.3302,-9.89266 11.3718,-21.01859 28.6693,-27.1735 z" id="path4211"/> <path style="fill:url(#linearGradient4563);fill-opacity:1;fill-rule:evenodd;stroke:none;stroke-width:1px;stroke-linecap:butt;stroke-linejoin:miter;stroke-opacity:1" d="m 1737.6222,601.82851 c -1.0659,-8.46952 -1.2496,-6.35289 -1.7023,-7.46427 -1.8538,-0.31435 -2.7315,-1.56304 -3.9386,-3.81768 -7.6683,-59.36334 -17.5424,-121.28065 -50.0637,-209.42113 l -1.3247,-0.49859 c 23.6153,75.81406 32.468,83.67311 49.8534,210.41464 0.5118,1.15436 2.4348,3.09889 4.2308,3.61116 1.5205,2.57119 0.5335,5.14238 0.7906,7.71357 z" id="path4221"/> <path style="fill:url(#linearGradient4555);fill-opacity:1;fill-rule:evenodd;stroke:none;stroke-width:1px;stroke-linecap:butt;stroke-linejoin:miter;stroke-opacity:1" d="m 1912.5884,558.83243 c -0.4841,-1.07527 33.6969,50.46537 5.769,97.88084 -18.5277,30.89621 -22.3271,49.04879 -33.26,73.61598 l 1.2591,0.17628 c 9.9969,-24.15332 18.9569,-50.8084 32.9073,-72.29647 9.7338,-13.99644 23.186,-36.93678 -2.8974,-100.71645 z" id="path4223"/> <ellipse style="opacity:1;fill:url(#radialGradient4392);fill-opacity:1;stroke:none;stroke-opacity:1" id="path4225" cx="2039.5265" cy="531.66882" rx="38.248837" ry="95.652695" transform="matrix(0.99191772,0.12688278,-0.11142181,0.9937732,0,0)"/> <path id="path4245" d="m 896.05864,590.19345 c 50.5085,-64.07262 115.76706,-125.3796 187.47226,-185.47782 8.8265,-6.50153 18.7785,-9.06456 28.9185,-10.96912 131.9916,-7.7353 254.9121,-4.88771 370.9556,5.98315 12.7763,0.69946 21.9204,5.82375 17.9495,26.9242 l -60.8287,185.47782 c -8.0496,10.34785 -11.2677,24.14674 -36.8961,21.93824 -172.7747,-16.41765 -347.5495,-33.83535 -507.57106,-43.87647 z" style="fill:url(#linearGradient4253);fill-opacity:1;fill-rule:evenodd;stroke:none;stroke-width:1px;stroke-linecap:butt;stroke-linejoin:miter;stroke-opacity:1"/> <path id="path4255" d="m 1746.7888,579.96974 c -15.1508,-63.72769 -29.8209,-129.86721 -52.179,-191.79308 46.1125,-4.55896 80.8066,-2.96138 104.358,-1e-5 19.8399,55.7051 68.1246,139.24863 58.5251,167.11383 z" style="fill:url(#linearGradient4267);fill-opacity:1;fill-rule:evenodd;stroke:none;stroke-width:1px;stroke-linecap:butt;stroke-linejoin:miter;stroke-opacity:1"/> <path id="path4257" d="m 1808.1344,390.99714 c 19.9785,53.82432 62.062,125.73458 59.9353,161.47286 l 28.2049,-5.64098 c 4.8484,-6.3468 15.326,-4.82631 1.4103,-37.37144 -25.2748,-44.0622 -51.3551,-87.3189 -89.5505,-118.46044 z" style="fill:url(#linearGradient4269);fill-opacity:1;fill-rule:evenodd;stroke:none;stroke-width:1px;stroke-linecap:butt;stroke-linejoin:miter;stroke-opacity:1"/> <path id="path4259" d="m 1495.0604,644.84094 c 5.7261,-51.97286 31.9775,-132.16808 51.4738,-203.07504 5.1161,-13.87653 8.1135,-39.39757 23.269,-41.60218 62.4424,-9.06567 56.5257,-5.50438 88.1403,-9.16658 17.2387,62.99087 30.2389,138.67392 38.0765,201.66479 z" style="fill:url(#linearGradient4271);fill-opacity:1;fill-rule:evenodd;stroke:none;stroke-width:1px;stroke-linecap:butt;stroke-linejoin:miter;stroke-opacity:1"/> <path style="fill:url(#linearGradient4427);fill-opacity:1;fill-rule:evenodd;stroke:none;stroke-width:1px;stroke-linecap:butt;stroke-linejoin:miter;stroke-opacity:1" d="m 1922.4487,479.91924 10.9831,14.82718 64.8003,12.63057 15.3763,-6.04071 c -24.696,-7.7713 -53.3334,-15.10466 -91.1597,-21.41704 z" id="path4381"/> <path style="fill:url(#linearGradient4443);fill-opacity:1;fill-rule:evenodd;stroke:none;stroke-width:1px;stroke-linecap:butt;stroke-linejoin:miter;stroke-opacity:1" d="m 1939.4725,502.43459 11.5323,13.72887 c 38.2819,1.96573 50.5234,9.94084 71.3901,15.92549 -3.8037,-6.51853 -8.015,-12.83325 -17.573,-16.47464 -20.6605,-4.67388 -39.2408,-9.86784 -65.3494,-13.17972 z" id="path4383"/> <path style="fill:url(#linearGradient4435);fill-opacity:1;fill-rule:evenodd;stroke:none;stroke-width:1px;stroke-linecap:butt;stroke-linejoin:miter;stroke-opacity:1" d="m 2023.3025,513.41768 c -8.2349,5.85683 -4.3462,7.47036 -2.7457,9.88479 3.1782,5.61426 7.9445,5.40595 12.6305,5.49155 l 10.9831,-1.09831 c -0.8692,-5.19108 -1.2287,-10.10583 -9.3356,-19.22042 -3.5521,0.47954 -7.4643,2.3995 -11.5323,4.94239 z" id="path4385"/> <path style="fill:url(#linearGradient4467);fill-opacity:1;fill-rule:evenodd;stroke:none;stroke-width:1px;stroke-linecap:butt;stroke-linejoin:miter;stroke-opacity:1" d="M 954.64734,897.82604 C 1325.8966,795.55201 1695.2368,688.50512 2060.6451,571.62809 Z" id="path4387"/> <path style="fill:#333333;fill-opacity:1;fill-rule:evenodd;stroke:none;stroke-width:1px;stroke-linecap:butt;stroke-linejoin:miter;stroke-opacity:1" d="m 2002.7564,697.38454 2.7458,29.65436 56.0138,-29.65436 16.4746,-16.47464 1.6474,-18.12211 z" id="path4391"/> <path style="fill:#1a1a1a;fill-rule:evenodd;stroke:none;stroke-width:1px;stroke-linecap:butt;stroke-linejoin:miter;stroke-opacity:1" d="m 2002.2072,696.28623 c 5.1916,1.89665 7.5552,0.96531 9.8848,0 l 61.5054,-28.00689 c 3.4138,-2.25148 12.3049,-5.53461 0,-10.43394 l -14.8273,-1.64747 c -17.388,12.8174 -36.2461,22.69461 -56.5629,29.65436 z" id="path4389"/> <path style="fill:url(#linearGradient4475);fill-opacity:1;fill-rule:evenodd;stroke:none;stroke-width:1px;stroke-linecap:butt;stroke-linejoin:miter;stroke-opacity:1" d="m 1398.0059,1010.9519 459.0934,-179.02443 5.4915,0 -463.4866,185.61433 z" id="path4417"/> <path style="fill:url(#linearGradient4451);fill-opacity:1;fill-rule:evenodd;stroke:none;stroke-width:1px;stroke-linecap:butt;stroke-linejoin:miter;stroke-opacity:1" d="m 1923.547,680.36074 c 39.3022,-28.75938 58.8346,-20.17572 71.9393,0.54916 l 7.139,9.33563 c -23.6081,-73.91258 -51.1475,-46.92131 -79.0783,-9.88479 z" id="path4419"/> <path id="path4521" d="m 1877.6824,750.7755 c 1.8544,1.22336 3.4903,2.87934 2.1754,10.38068 -4.4236,19.44818 -13.6606,44.1963 -21.9163,67.86384 l 2.1995,-1.27516 c 7.4015,-22.02651 14.9516,-44.04368 21.454,-66.12654 1.5326,-6.41783 1.0679,-10.72294 -2.439,-11.81022 z" style="fill:url(#linearGradient4523);fill-opacity:1;fill-rule:evenodd;stroke:none;stroke-width:1px;stroke-linecap:butt;stroke-linejoin:miter;stroke-opacity:1"/> <path style="fill:url(#linearGradient4573);fill-opacity:1;fill-rule:evenodd;stroke:#000000;stroke-width:0.73586744px;stroke-linecap:butt;stroke-linejoin:miter;stroke-opacity:1" d="m 1493.9173,648.50976 c 141.9659,-31.08327 285.5486,-61.96445 416.2594,-94.45462 z" id="path4565"/> <path style="fill:#000000;fill-rule:evenodd;stroke:#000000;stroke-width:0.73586744px;stroke-linecap:butt;stroke-linejoin:miter;stroke-opacity:1" d="m 1216.3262,925.17272 c 19.3032,-0.33217 16.0681,10.60488 20.1922,17.8623 l -8.5428,48.1506 c -7.1158,12.07318 -14.1679,24.84748 -23.2987,14.75588 -24.3468,-13.84465 -42.6004,-22.17475 -52.0337,-22.52208 20.017,-41.20916 41.609,-54.06587 63.683,-58.2467 z" id="path4575"/> <path style="fill:#000000;fill-rule:evenodd;stroke:#000000;stroke-width:0.73586744px;stroke-linecap:butt;stroke-linejoin:miter;stroke-opacity:1" d="m 1143.3238,1007.4947 c -21.3635,43.8676 -12.4432,74.2758 3.1065,101.7375 24.5913,-3.3688 38.2243,-28.6541 52.8103,-52.0337 7.5662,-9.3292 -1.5835,-15.8726 -5.4364,-23.2986 -12.7873,-9.8117 -21.9512,-20.529 -50.4804,-26.4052 z" id="path4577"/> <path style="fill:#000000;fill-rule:evenodd;stroke:#000000;stroke-width:0.73586744px;stroke-linecap:butt;stroke-linejoin:miter;stroke-opacity:1" d="m 1161.9627,1129.4244 c 24.0669,-7.9784 32.5514,-25.3062 47.374,-38.8311 7.7662,-12.8065 15.5324,-6.6112 23.2986,3.1065 6.9306,21.8535 14.7334,44.4048 11.6493,58.2466 -45.3186,11.8605 -60.423,-9.0111 -82.3219,-22.522 z" id="path4579"/> <path style="fill:#000000;fill-rule:evenodd;stroke:#000000;stroke-width:0.73586744px;stroke-linecap:butt;stroke-linejoin:miter;stroke-opacity:1" d="m 1259.8171,1090.5933 c -2.3402,-12.8221 5.2022,-18.2321 19.4156,-18.6389 l 41.1609,17.0856 c -9.7024,29.864 -30.0674,45.5111 -52.0337,59.0233 3.782,-19.1567 -2.1804,-38.3133 -8.5428,-57.47 z" id="path4581"/> <path style="fill:#000000;fill-rule:evenodd;stroke:#000000;stroke-width:0.73586744px;stroke-linecap:butt;stroke-linejoin:miter;stroke-opacity:1" d="m 1287.7755,1016.8142 c -11.0268,9.3089 -12.0126,17.6139 -2.3298,24.8519 l 47.3739,21.7454 c 13.4501,-49.4237 4.9432,-57.6781 3.1065,-78.43888 -9.679,11.67571 -26.0474,22.23658 -48.1506,31.84158 z" id="path4583"/> <path style="fill:#000000;fill-rule:evenodd;stroke:#000000;stroke-width:0.73586744px;stroke-linecap:butt;stroke-linejoin:miter;stroke-opacity:1" d="m 1252.0509,923.61953 c 6.1267,17.2583 0.6203,40.33296 -0.7766,61.35309 1.9649,11.29071 7.4105,17.36028 21.7454,10.0961 40.4443,-23.31346 41.3235,-25.5254 52.8103,-33.39477 2.5016,-7.53241 -30.0405,-43.42456 -73.7791,-38.05442 z" id="path4585"/> <path style="fill:#000000;fill-rule:evenodd;stroke:#000000;stroke-width:0.73586744px;stroke-linecap:butt;stroke-linejoin:miter;stroke-opacity:1" d="m 1948.6175,716.05581 c 13.4892,14.27802 -0.1039,28.55605 -3.8441,42.83407 12.1971,-9.14948 24.4636,-18.1167 32.4002,-38.44083 1.1899,-13.87559 -20.4767,-19.32906 -28.5561,-4.39324 z" id="path4587"/> <path style="fill:#000000;fill-rule:evenodd;stroke:#000000;stroke-width:0.73586744px;stroke-linecap:butt;stroke-linejoin:miter;stroke-opacity:1" d="m 1942.5768,727.58806 c 16.3506,3.7998 -5.4117,31.7128 -8.2373,54.36632 l -4.9424,1.64746 c 1.6788,-29.52897 7.1681,-43.81565 13.1797,-56.01378 z" id="path4589"/> <path style="fill:#000000;fill-rule:evenodd;stroke:#000000;stroke-width:0.73586744px;stroke-linecap:butt;stroke-linejoin:miter;stroke-opacity:1" d="m 1928.2988,798.97818 c 4.9984,3.1515 8.3142,7.31251 6.0407,14.82718 4.1816,18.41163 3.6759,30.261 0.5491,38.44083 -6.3191,-12.60286 -5.8447,-33.69759 -6.5898,-53.26801 z" id="path4591"/> <path style="fill:#000000;fill-rule:evenodd;stroke:#000000;stroke-width:0.73586744px;stroke-linecap:butt;stroke-linejoin:miter;stroke-opacity:1" d="m 1943.6751,820.94437 c 6.3284,18.04696 12.6934,36.1076 -3.8441,45.57985 12.9957,5.6721 20.1616,-4.20208 29.1052,-9.33563 -3.1259,-15.39043 -10.4418,-28.16216 -25.2611,-36.24422 z" id="path4593"/> <path style="fill:#000000;fill-rule:evenodd;stroke:#000000;stroke-width:0.73586744px;stroke-linecap:butt;stroke-linejoin:miter;stroke-opacity:1" d="m 1960.6989,814.90367 c -2.623,-7.88197 -7.3733,-16.73089 5.4915,-17.57295 l 18.6713,-1.64747 c 0.9103,4.50292 2.6297,22.65722 -9.3356,47.77646 -2.8904,-7.65525 -5.3735,-14.94067 -14.8272,-28.55604 z" id="path4595"/> <path style="fill:#000000;fill-rule:evenodd;stroke:#000000;stroke-width:0.73586744px;stroke-linecap:butt;stroke-linejoin:miter;stroke-opacity:1" d="m 1960.6989,767.67636 c 1.3853,2.78534 2.5883,5.66179 1.0983,9.88479 4.7281,-4.74008 16.6358,0.0928 25.2611,0.54914 -0.1116,-13.8896 1.5527,-28.13437 -5.4915,-40.63745 -0.9882,7.5102 -9.6933,18.32768 -20.8679,30.20352 z" id="path4597"/> <path style="fill:url(#linearGradient4609);fill-opacity:1;fill-rule:evenodd;stroke:none;stroke-width:1px;stroke-linecap:butt;stroke-linejoin:miter;stroke-opacity:1" d="m 1084.9209,402.88289 c 6.3077,-3.62005 12.9472,-6.99016 20.9688,-9.31946 l 31.8415,-0.77662 c -36.1354,54.9198 -64.8138,118.53941 -88.5349,187.94255 -3.3839,10.33169 -7.8543,19.30539 -19.4156,19.41556 l -142.12176,-8.54284 c 62.8749,-71.61157 131.28046,-134.68006 197.26196,-188.71919 z" id="path4601"/> <path style="fill:url(#linearGradient4621);fill-opacity:1;fill-rule:evenodd;stroke:none;stroke-width:1px;stroke-linecap:butt;stroke-linejoin:miter;stroke-opacity:1" d="m 1261.4166,365.87152 c 15.8676,-27.60089 75.2947,-29.98308 128.9192,-35.72462 -12.4488,4.48165 -28.4929,5.71993 -34.1713,16.30907 -4.6531,7.51396 -7.8079,16.52628 -16.3091,20.19218 z" id="path4613"/> <path style="fill:url(#linearGradient4631);fill-opacity:1;fill-rule:evenodd;stroke:none;stroke-width:1px;stroke-linecap:butt;stroke-linejoin:miter;stroke-opacity:1" d="m 2011.4312,741.49015 c 15.3662,-5.08487 27.5791,-13.32308 38.8311,-22.52204 z" id="path4623"/> <path style="fill:#000000;fill-rule:evenodd;stroke:#000000;stroke-width:0.73586744px;stroke-linecap:butt;stroke-linejoin:miter;stroke-opacity:1" d="m 1210.0043,1021.935 -6.0407,17.0238 c 7.172,-1.9899 9.1194,-7.7118 6.0407,-17.0238 z" id="path4633"/> <path style="fill:#000000;fill-rule:evenodd;stroke:#000000;stroke-width:0.73586744px;stroke-linecap:butt;stroke-linejoin:miter;stroke-opacity:1" d="m 1204.5128,1066.9657 c 6.2523,-2.0708 14.0176,-7.1674 10.4339,10.4339 z" id="path4635"/> <path style="fill:#000000;fill-rule:evenodd;stroke:#000000;stroke-width:0.73586744px;stroke-linecap:butt;stroke-linejoin:miter;stroke-opacity:1" d="m 1242.9536,1083.4404 c -4.8953,-16.7333 0.6896,-18.9556 14.8272,-9.3357 z" id="path4637"/> <path style="fill:#000000;fill-rule:evenodd;stroke:#000000;stroke-width:0.73586744px;stroke-linecap:butt;stroke-linejoin:miter;stroke-opacity:1" d="m 1226.4789,1009.8536 c 9.1397,11.5361 12.4959,4.276 15.9255,-2.7457 -4.92,-0.7584 -9.3916,-3.4478 -15.9255,2.7457 z" id="path4639"/> <path style="fill:#000000;fill-rule:evenodd;stroke:#000000;stroke-width:0.73586744px;stroke-linecap:butt;stroke-linejoin:miter;stroke-opacity:1" d="m 1266.5673,1026.8774 c -26.3263,7.1477 -6.8434,21.2549 2.7457,15.3763 2.7448,-5.7354 3.2468,-11.0971 -2.7457,-15.3763 z" id="path4641"/> <path style="fill:url(#linearGradient4699);fill-opacity:1;fill-rule:evenodd;stroke:none;stroke-width:1px;stroke-linecap:butt;stroke-linejoin:miter;stroke-opacity:1" d="m 1939.148,793.52384 c -9.126,32.01173 13.8074,19.71083 15.5324,-0.77663 -3.8195,1.16416 -5.8685,3.50871 -15.5324,0.77663 z" id="path4643"/> <path style="fill:url(#linearGradient4703);fill-opacity:1;fill-rule:evenodd;stroke:none;stroke-width:1px;stroke-linecap:butt;stroke-linejoin:miter;stroke-opacity:1" d="m 1943.0311,726.73433 c 12.1642,3.38229 4.2512,18.57467 -0.3883,31.84151 l 1.1649,0.38831 c 7.2452,-15.97637 14.0187,-31.80529 5.0481,-42.71422 -2.5564,2.26518 -4.2952,6.16551 -5.8247,10.4844 z" id="path4645"/> <path style="fill:url(#linearGradient4705);fill-opacity:1;fill-rule:evenodd;stroke:none;stroke-width:1px;stroke-linecap:butt;stroke-linejoin:miter;stroke-opacity:1" d="m 1977.2025,719.74473 c 1.1653,14.83361 -3.6302,27.87896 -12.8143,39.60773 5.412,-4.82932 11.0349,-11.55667 17.474,-25.62853 1.4797,-2.47769 2.5953,-5.04638 0,-8.54284 z" id="path4647"/> <path style="fill:url(#linearGradient4701);fill-opacity:1;fill-rule:evenodd;stroke:none;stroke-width:1px;stroke-linecap:butt;stroke-linejoin:miter;stroke-opacity:1" d="m 1958.1752,798.96019 c -1.4304,7.55267 -1.6232,14.69287 3.1065,20.19218 6.9662,6.95437 8.5308,11.74805 10.4844,16.69737 1.7638,6.50445 -1.1307,9.016 -6.6013,9.31947 -7.2173,-10.76728 -14.5612,-24.89784 -21.3571,-24.4636 11.4806,-9.47897 11.677,-15.19653 14.3675,-21.74542 z" id="path4649"/> <path style="fill:url(#linearGradient4683);fill-opacity:1;fill-rule:evenodd;stroke:none;stroke-width:1px;stroke-linecap:butt;stroke-linejoin:miter;stroke-opacity:1" d="m 1195.7262,1063.6708 c -10.5334,24.9209 -25.3765,39.0675 -41.7357,49.4238 l 1.6474,3.295 c 10.4231,-6.8256 19.7272,-14.8947 27.4578,-24.7119 l 20.3187,-19.2204 -1.0983,-1.0984 -12.6306,8.2373 c 3.5187,-3.4981 7.2256,-6.2437 9.3357,-15.3763 z" id="path4651"/> <path style="fill:url(#linearGradient4687);fill-opacity:1;fill-rule:evenodd;stroke:none;stroke-width:1px;stroke-linecap:butt;stroke-linejoin:miter;stroke-opacity:1" d="m 1226.649,926.26341 c 10.4149,8.65492 12.6291,18.85522 10.114,29.9468 4.4478,-13.28998 8.1133,-33.08447 17.6052,-4.43529 1.6328,-10.92535 0.3004,-21.29181 -5.2571,-30.86211 z" id="path4653"/> <path style="fill:url(#linearGradient4689);fill-opacity:1;fill-rule:evenodd;stroke:none;stroke-width:1px;stroke-linecap:butt;stroke-linejoin:miter;stroke-opacity:1" d="m 1269.313,998.32133 c 20.1141,-12.09222 45.9112,-21.34288 58.2104,-37.34255 8.1806,4.84392 8.168,11.32647 9.3356,17.57296 -17.6458,22.00516 -37.619,27.71936 -56.5629,40.63746 81.1037,-62.84484 38.6433,-44.21878 -10.9831,-20.86787 z" id="path4655"/> <path style="fill:url(#linearGradient4691);fill-opacity:1;fill-rule:evenodd;stroke:none;stroke-width:1px;stroke-linecap:butt;stroke-linejoin:miter;stroke-opacity:1" d="m 1211.6517,1084.9934 c 27.3142,-13.6063 20.727,29.0453 31.0226,43.6807 6.6863,4.3679 12.4203,0.6908 17.8614,-5.4601 -0.7844,-18.5919 -17.3795,-46.2911 6.5806,-50.6299 l -6.1105,-3.9709 c -17.2433,22.2802 -32.2256,15.9069 -47.004,6.9491 3.0878,3.1437 0.7433,6.2873 -2.3501,9.4311 z" id="path4657"/> <path style="fill:url(#linearGradient4685);fill-opacity:1;fill-rule:evenodd;stroke:none;stroke-width:1px;stroke-linecap:butt;stroke-linejoin:miter;stroke-opacity:1" d="m 1152.3429,985.69083 7.139,0.5491 c -6.1634,9.20166 -8.2959,16.79097 -7.139,23.06447 l -9.3356,-3.2949 c 1.6059,-6.7729 3.4223,-13.54575 9.3356,-20.31867 z" id="path4659"/> <path style="fill:url(#linearGradient4715);fill-opacity:1;fill-rule:evenodd;stroke:none;stroke-width:1px;stroke-linecap:butt;stroke-linejoin:miter;stroke-opacity:1" d="M 650.41564,817.64944 C 831.50374,742.58084 1020.8503,675.28489 1236.9129,633.13343 1035.1389,682.08902 841.94744,748.20968 650.41564,817.64944 Z" id="path4707"/> <path style="fill:#338000;fill-rule:evenodd;stroke:none;stroke-width:1px;stroke-linecap:butt;stroke-linejoin:miter;stroke-opacity:1;fill-opacity:1" d="m 1594.8878,555.84004 c -16.1218,0.32844 -35.3604,8.13656 -56.4189,30.32579 l -22.523,2.32977 -3.1059,-29.51231 -24.0752,87.75938 42.7134,-9.32051 c 48.8355,-10.46609 125.1331,-6.10064 112.6106,-49.70267 0.9914,-5.87263 -18.423,-32.50646 -49.201,-31.87945 z m -57.5385,38.199 c -2.8545,8.56439 -6.6094,16.0026 -11.2795,22.29736 -0.2672,0.0404 -0.5285,0.0911 -0.8034,0.11785 -3.5731,-8.99182 -4.4018,-17.43495 12.0829,-22.41521 z" id="path4721"/> <path style="fill:#1a1a1a;fill-rule:evenodd;stroke:none;stroke-width:1px;stroke-linecap:butt;stroke-linejoin:miter;stroke-opacity:1" d="m 1539.245,587.71949 c -33.7176,4.58334 -45.9455,23.93984 -46.5968,51.25632 14.0358,-3.92736 25.1564,-11.49895 33.4216,-22.63941 -0.2672,0.0404 -0.5285,0.0911 -0.8034,0.11785 -3.573,-8.99157 -4.4019,-17.4349 12.0814,-22.41521 0,0.0138 -0.01,0.0279 -0.013,0.0417 0,-0.0141 0.01,-0.0276 0.014,-0.0417 0.6815,-2.04475 1.317,-4.14629 1.8957,-6.31955 z m -1.9101,6.36123 c -1.0545,3.15909 -2.2323,6.16431 -3.5327,9.01581 1.301,-2.85132 2.4782,-5.85639 3.5327,-9.01581 z m -3.5327,9.01581 c -0.03,0.0653 -0.061,0.13032 -0.091,0.19547 0.03,-0.0652 0.061,-0.1301 0.091,-0.19547 z m -0.091,0.19547 c -0.8702,1.89517 -1.7939,3.72367 -2.7739,5.48163 0.9804,-1.75766 1.9034,-3.58676 2.7739,-5.48163 z m -2.7739,5.48163 c -0.4767,0.85517 -0.969,1.69113 -1.4717,2.51374 0.5028,-0.8224 0.9949,-1.65881 1.4717,-2.51374 z m -1.4717,2.51374 c -0.045,0.0732 -0.089,0.14696 -0.1336,0.2199 0.045,-0.073 0.089,-0.14667 0.1336,-0.2199 z m -0.1336,0.2199 c -1.032,1.67469 -2.1159,3.28355 -3.2568,4.82194 1.141,-1.53845 2.2246,-3.14743 3.2568,-4.82194 z" id="path4717"/> <path style="fill:#eef4d7;fill-rule:evenodd;stroke:none;stroke-width:1px;stroke-linecap:butt;stroke-linejoin:miter;stroke-opacity:1;opacity:0.541" d="m 464.1791,1017.9104 c 0.51474,0.5147 -10.22797,12.0851 -30.01353,31.2842 22.84244,18.4042 56.32499,42.1901 102.61094,65.2235 32.72898,17.0683 69.6997,33.0332 112.77217,48.0117 74.58266,26.51 148.75351,44.1122 241.40914,65.1415 0.73147,-1.0915 1.46357,-2.1839 2.19638,-3.2773 9.8113,-14.6392 20.00307,-29.8352 29.55929,-44.0889 -95.21037,-20.5065 -171.78988,-39.197 -245.42286,-63.0654 -69.77332,-23.376 -119.78323,-45.6 -158.10455,-65.8246 -36.39189,-19.2063 -55.3129,-32.9085 -55.00698,-33.4047 0.5844,-0.9479 20.32994,11.3757 57.12784,29.2145 39.11189,18.9605 88.47956,39.6996 158.54356,62.2149 74.74116,24.8287 151.40019,45.238 248.18229,68.6641 -10.25414,17.2686 -21.01751,35.3987 -31.56802,53.159 -0.78335,1.3187 -1.56599,2.6361 -2.34797,3.9524 -94.42191,-20.1217 -171.36764,-37.6413 -247.5086,-64.3589 -43.26529,-15.5108 -80.4699,-32.1784 -113.21419,-49.9889 -46.36914,-26.3232 -79.77457,-52.2593 -101.88794,-71.4547 20.55408,-21.1416 32.15881,-31.9166 32.67303,-31.4024 z" id="path4420"/> </svg>